<svg xmlns="http://www.w3.org/2000/svg" viewBox="0 0 2400 1600" preserveAspectRatio="xMidYMid slice">
  <defs>
    <linearGradient id="bg" x1="0" y1="0" x2="1" y2="1">
      <stop offset="0" stop-color="#dfeaff"/>
      <stop offset="0.42" stop-color="#f7f9ff"/>
      <stop offset="1" stop-color="#d9fff5"/>
    </linearGradient>
    <radialGradient id="blue" cx="28%" cy="22%" r="55%">
      <stop offset="0" stop-color="#7fb6ff" stop-opacity="0.78"/>
      <stop offset="0.42" stop-color="#7fb6ff" stop-opacity="0.26"/>
      <stop offset="1" stop-color="#7fb6ff" stop-opacity="0"/>
    </radialGradient>
    <radialGradient id="violet" cx="78%" cy="18%" r="48%">
      <stop offset="0" stop-color="#c6a7ff" stop-opacity="0.72"/>
      <stop offset="0.5" stop-color="#c6a7ff" stop-opacity="0.24"/>
      <stop offset="1" stop-color="#c6a7ff" stop-opacity="0"/>
    </radialGradient>
    <radialGradient id="mint" cx="62%" cy="82%" r="52%">
      <stop offset="0" stop-color="#7df3df" stop-opacity="0.5"/>
      <stop offset="0.48" stop-color="#7df3df" stop-opacity="0.18"/>
      <stop offset="1" stop-color="#7df3df" stop-opacity="0"/>
    </radialGradient>
    <filter id="blur"><feGaussianBlur stdDeviation="44"/></filter>
    <filter id="soft"><feGaussianBlur stdDeviation="14"/></filter>
  </defs>
  <rect width="2400" height="1600" fill="url(#bg)"/>
  <rect width="2400" height="1600" fill="url(#blue)"/>
  <rect width="2400" height="1600" fill="url(#violet)"/>
  <rect width="2400" height="1600" fill="url(#mint)"/>
  <g filter="url(#blur)" opacity="0.9">
    <ellipse cx="510" cy="395" rx="430" ry="250" fill="#ffffff" opacity="0.46"/>
    <ellipse cx="1730" cy="330" rx="380" ry="230" fill="#ffffff" opacity="0.32"/>
    <ellipse cx="1410" cy="1220" rx="560" ry="280" fill="#ffffff" opacity="0.28"/>
  </g>
  <g opacity="0.42" filter="url(#soft)">
    <path d="M-100 1140 C 360 960, 640 980, 1010 1120 S 1740 1360, 2500 1040 L 2500 1600 L -100 1600 Z" fill="#ffffff"/>
    <path d="M-120 330 C 350 190, 690 210, 1040 360 S 1800 520, 2520 260" fill="none" stroke="#ffffff" stroke-width="90" stroke-linecap="round"/>
  </g>
  <g opacity="0.36">
    <circle cx="460" cy="570" r="170" fill="#ffffff"/>
    <circle cx="1910" cy="760" r="230" fill="#ffffff" opacity="0.42"/>
    <circle cx="1060" cy="280" r="110" fill="#ffffff" opacity="0.28"/>
  </g>
</svg>
